<svg xmlns="http://www.w3.org/2000/svg" width="40pt" height="40pt" preserveAspectRatio="xMidYMid" version="1.0" viewBox="0 0 40 40"><path d="M0 20v20h12.328l1.035-.445c.567-.242 1.32-.57 1.676-.727.356-.156 1.262-.55 2.012-.879a805.49 805.49 0 0 0 4.414-1.933l3.808-1.668 1.407-.618c.62-.273 3.047-1.335 4.96-2.167.505-.22 1.368-.598 1.915-.84.547-.243 1.304-.57 1.68-.735.374-.16.964-.418 1.308-.566.344-.149 1.117-.488 1.719-.746.601-.262 1.238-.54 1.418-.617l.32-.141V0H0Zm21.684-9.926a6.165 6.165 0 0 1 1.695.578c.27.133.89.52.871.543a5.46 5.46 0 0 1-.344.035c-.535.04-.883.098-1.32.22l-.41.116-.297-.097c-.164-.055-.367-.117-.453-.145-.113-.039-.785-.054-2.52-.07l-2.363-.024.398-.265c.77-.512 1.606-.813 2.727-.98.066-.008.46-.012.879-.005.558.012.863.036 1.137.094zm-.864 2.184c0 .015-.133.125-.293.238-.355.258-.851.766-1.191 1.223l-.25.344h-1.313c-1.703 0-1.976.035-2.601.335-.348.172-.863.696-1.047 1.07-.328.673-.336 1.384-.023 2.044.425.902 1.214 1.418 2.246 1.46.566.028.988-.05 1.41-.261.351-.172.781-.543 1.039-.89.223-.301.457-.825.52-1.153.027-.156.081-.445.117-.648.082-.473.175-.75.414-1.215.632-1.239 1.808-2.145 3.199-2.47.476-.108 1.594-.136 2.14-.054 1.547.235 2.817 1.219 3.36 2.602.242.613.297.93.297 1.68 0 .613-.012.722-.106 1.062-.375 1.398-1.433 2.547-2.742 2.973-.726.238-.66.234-3.223.25-1.3.007-2.52.011-2.71.004l-.344-.012.347-.262c.41-.305.91-.82 1.211-1.25.118-.168.235-.316.258-.332.027-.016.777-.031 1.668-.031 1.817 0 1.867-.008 2.402-.285.856-.45 1.45-1.535 1.31-2.403-.169-1.05-.802-1.78-1.817-2.093-.274-.086-.387-.098-.918-.098-.547 0-.633.008-.907.101-.48.16-.796.36-1.164.731-.48.484-.644.82-.746 1.531-.093.672-.222 1.117-.449 1.567-.61 1.21-1.648 2.152-2.867 2.59-.918.328-2.11.343-3.094.035a4.355 4.355 0 0 1-2.586-2.196c-.344-.683-.476-1.336-.441-2.156a4.266 4.266 0 0 1 1.355-2.945c.64-.602 1.54-1 2.461-1.09.293-.031 5.078-.027 5.078.004zm3.664 2.89c.211.11.301.25.301.485 0 .176-.012.207-.117.281-.227.16-.406.371-.434.516-.047.246.04.425.297.625.293.23.348.418.196.668-.157.257-.2.265-1.485.25a30.443 30.443 0 0 1-1.168-.024 1.275 1.275 0 0 1 .067-.242c.125-.355.203-.8.203-1.137 0-.297.008-.32.152-.543.52-.773 1.422-1.175 1.988-.879zm-5.851-.058c0 .008-.035.117-.082.246a7.395 7.395 0 0 0-.176.816c-.121.707-.191.86-.602 1.27-.503.504-1.02.691-1.418.515-.289-.128-.418-.425-.285-.664.028-.05.133-.156.239-.234.336-.258.375-.64.09-.894-.34-.301-.383-.356-.383-.477 0-.215.175-.461.39-.547.086-.035 2.227-.062 2.227-.031zm.61 6.648c.437.114.91.133 2.91.11 1.296-.016 1.988-.012 1.988.015 0 .059-.758.489-1.133.649-1 .418-2.238.633-3.106.539-1.136-.125-2.234-.496-3.027-1.028l-.254-.168.508-.023a3.802 3.802 0 0 0 1.305-.281c.117-.051.148-.047.351.035.121.05.328.117.457.152zm-6.583 3.73c.344.098.574.372.496.595-.043.12-.234.265-.355.265a.517.517 0 0 1-.207-.101c-.239-.184-.602-.11-.602.12 0 .126.14.231.469.352.512.192.738.387.824.696.113.43-.129.945-.535 1.14-.469.223-1.156.117-1.438-.215-.136-.168-.136-.351.008-.511.14-.157.262-.157.477 0 .09.066.223.128.293.144.164.031.398-.07.457-.195.055-.13-.016-.215-.254-.317-.5-.214-.605-.27-.746-.402-.492-.469-.36-1.227.27-1.516.214-.101.59-.125.843-.054zm2.059.024c.144.102.203.262.203.563v.277l.348-.402c.347-.403.472-.5.644-.5.113 0 .293.136.34.261.055.145-.035.293-.445.739l-.434.476c-.07.082-.07.086.402.676.383.477.473.617.473.715 0 .254-.336.43-.574.305-.09-.051-.711-.836-.723-.91-.004-.032-.015.117-.027.324-.024.351-.031.386-.137.496-.09.093-.148.12-.27.12a.621.621 0 0 1-.23-.042c-.172-.09-.187-.23-.187-1.508 0-.703.015-1.262.039-1.348.074-.265.37-.39.578-.242zm2.969.016c.07.043.144.125.167.183.051.137.043 2.52-.011 2.672a.4.4 0 0 1-.66.157l-.114-.114V27.06c0-1.317 0-1.348.082-1.45.149-.191.332-.222.535-.101zm1.664.039c.078.078.082.137.101 1.203l.02 1.121.574.008c.324.004.61.023.652.05a.41.41 0 0 1 .18.387.442.442 0 0 1-.121.204c-.098.093-.117.093-.953.105-.563.008-.883-.004-.938-.031-.191-.102-.199-.18-.187-1.598.011-1.262.015-1.328.09-1.41a.604.604 0 0 1 .156-.121.464.464 0 0 1 .426.082zm3.043.039.105.117v1.313c0 1.152-.008 1.324-.066 1.422a.414.414 0 0 1-.641.082l-.113-.114V27.06c0-1.317 0-1.348.082-1.45.172-.214.449-.226.633-.023zm1.5-.07c.066.05.312.316.546.593.23.278.532.637.668.797l.243.29v-1.5l.132-.134c.157-.156.293-.171.477-.058.207.125.219.219.2 1.633l-.016 1.273-.125.113c-.141.13-.329.145-.457.04-.075-.06-.79-.903-1.274-1.508l-.187-.23v.738c0 .625-.012.757-.07.875-.137.277-.548.277-.688.003-.055-.097-.063-.312-.063-1.39 0-1.39.008-1.442.227-1.559.148-.082.246-.074.387.024zm3.69.027c.13.113.13.121.15.531l.019.414.367-.433c.461-.543.559-.625.734-.625.188 0 .364.175.364.367 0 .125-.043.187-.336.5-.188.2-.399.437-.477.531-.12.149-.129.172-.078.235.442.519.848 1.023.887 1.093.066.125.02.301-.102.399-.12.093-.386.105-.504.02-.047-.032-.257-.282-.468-.555l-.387-.497-.02.426c-.027.567-.097.684-.41.684-.105 0-.172-.031-.258-.113l-.113-.114-.008-.992c-.02-1.824-.023-1.785.176-1.906.176-.11.317-.098.465.035zM34.352 34.219c-.504.078-.93.289-1.282.64l-.238.239.398.011c.38.012.403.008.575-.105.273-.168.629-.254.968-.227.305.024.668.137.829.266.086.066.148.074.5.066l.402-.011-.254-.254a2.028 2.028 0 0 0-.957-.559c-.309-.078-.695-.105-.941-.066zM33.086 35.238c-.547.028-.73.07-1.035.246-.23.137-.555.5-.676.754-.094.203-.105.27-.105.676s.011.469.105.676a1.81 1.81 0 0 0 1.09.969c.23.07.347.078.789.066.484-.012.531-.02.781-.137.16-.078.344-.207.473-.336.351-.351.492-.722.492-1.3 0-.356.074-.524.336-.75.266-.235.55-.332.914-.313.508.031.863.254 1.063.676.253.543.03 1.18-.52 1.484l-.211.117-.816.012-.82.012-.231.195c-.13.11-.285.223-.348.254-.066.035-.105.07-.09.086.032.031 2.2.016 2.403-.02.273-.042.683-.273.89-.5.809-.882.551-2.195-.535-2.726-.258-.125-.262-.125-.847-.125h-.59l-.332.164a1.64 1.64 0 0 0-.543.395c-.332.359-.399.527-.426 1.082-.02.417-.031.488-.129.652a1.162 1.162 0 0 1-.582.484c-.203.074-.652.086-.875.024-.52-.149-.922-.72-.863-1.223a1.11 1.11 0 0 1 .66-.918c.242-.11.254-.113 1.125-.125l.879-.016.156-.144c.086-.078.238-.195.34-.258a.816.816 0 0 0 .187-.148c0-.035-1.258-.024-2.11.015z"/><path d="M32.766 36.395c-.153.023-.368.238-.414.41a.587.587 0 0 0 .156.566c.113.106.125.11.61.121.464.012.503.008.632-.078.191-.129.273-.312.273-.61 0-.136.016-.277.04-.316.03-.062.015-.074-.11-.097a9.276 9.276 0 0 0-1.187.004zM35.64 36.441c-.288.133-.35.266-.378.793l-.012.266h.648c.77 0 .868-.031 1.008-.32.078-.157.086-.2.047-.34a.65.65 0 0 0-.422-.434c-.238-.066-.707-.047-.89.035zM32.934 38.91c.265.336.68.594 1.152.715.309.078.906.082 1.203.004.344-.09.738-.316.969-.55.324-.337.328-.329-.106-.329-.351 0-.379.008-.535.117-.344.25-.984.344-1.426.215a1.73 1.73 0 0 1-.402-.195c-.2-.133-.21-.137-.594-.137h-.39z"/></svg>